<?xml version="1.0" encoding="UTF-8" standalone="no"?>
<!-- Created with Inkscape (http://www.inkscape.org/) -->

<svg
   width="64pt"
   height="64pt"
   viewBox="0 0 22.577778 22.577778"
   version="1.1"
   id="svg831"
   inkscape:version="1.1.2 (b8e25be833, 2022-02-05)"
   sodipodi:docname="Export - Unblash - 64px.svg"
   inkscape:export-filename="E:\Project Design\TR Icon Design Project\Carlos - Icon Design Project\September\Done\100%\Expanded\16 - Pressure Cooker.png"
   inkscape:export-xdpi="576"
   inkscape:export-ydpi="576"
   xmlns:inkscape="http://www.inkscape.org/namespaces/inkscape"
   xmlns:sodipodi="http://sodipodi.sourceforge.net/DTD/sodipodi-0.dtd"
   xmlns="http://www.w3.org/2000/svg"
   xmlns:svg="http://www.w3.org/2000/svg"
   xmlns:rdf="http://www.w3.org/1999/02/22-rdf-syntax-ns#"
   xmlns:cc="http://creativecommons.org/ns#"
   xmlns:dc="http://purl.org/dc/elements/1.1/">
  <defs
     id="defs825">
    <pattern
       id="EMFhbasepattern"
       patternUnits="userSpaceOnUse"
       width="6"
       height="6"
       x="0"
       y="0" />
    <pattern
       id="EMFhbasepattern-9"
       patternUnits="userSpaceOnUse"
       width="6"
       height="6"
       x="0"
       y="0" />
    <pattern
       id="EMFhbasepattern-0"
       patternUnits="userSpaceOnUse"
       width="6"
       height="6"
       x="0"
       y="0" />
    <pattern
       id="EMFhbasepattern-7"
       patternUnits="userSpaceOnUse"
       width="6"
       height="6"
       x="0"
       y="0" />
    <pattern
       id="EMFhbasepattern-2"
       patternUnits="userSpaceOnUse"
       width="6"
       height="6"
       x="0"
       y="0" />
    <pattern
       id="EMFhbasepattern-98"
       patternUnits="userSpaceOnUse"
       width="6"
       height="6"
       x="0"
       y="0" />
    <pattern
       id="EMFhbasepattern-6"
       patternUnits="userSpaceOnUse"
       width="6"
       height="6"
       x="0"
       y="0" />
    <pattern
       id="EMFhbasepattern-01"
       patternUnits="userSpaceOnUse"
       width="6"
       height="6"
       x="0"
       y="0" />
    <pattern
       id="EMFhbasepattern-07"
       patternUnits="userSpaceOnUse"
       width="6"
       height="6"
       x="0"
       y="0" />
    <pattern
       id="EMFhbasepattern-8"
       patternUnits="userSpaceOnUse"
       width="6"
       height="6"
       x="0"
       y="0" />
    <pattern
       id="EMFhbasepattern-4"
       patternUnits="userSpaceOnUse"
       width="6"
       height="6"
       x="0"
       y="0" />
    <pattern
       id="EMFhbasepattern-40"
       patternUnits="userSpaceOnUse"
       width="6"
       height="6"
       x="0"
       y="0" />
    <pattern
       id="EMFhbasepattern-08"
       patternUnits="userSpaceOnUse"
       width="6"
       height="6"
       x="0"
       y="0" />
    <pattern
       id="EMFhbasepattern-04"
       patternUnits="userSpaceOnUse"
       width="6"
       height="6"
       x="0"
       y="0" />
    <pattern
       id="EMFhbasepattern-014"
       patternUnits="userSpaceOnUse"
       width="6"
       height="6"
       x="0"
       y="0" />
    <pattern
       id="EMFhbasepattern-27"
       patternUnits="userSpaceOnUse"
       width="6"
       height="6"
       x="0"
       y="0" />
    <pattern
       id="EMFhbasepattern-09"
       patternUnits="userSpaceOnUse"
       width="6"
       height="6"
       x="0"
       y="0" />
    <pattern
       id="EMFhbasepattern-5"
       patternUnits="userSpaceOnUse"
       width="6"
       height="6"
       x="0"
       y="0" />
    <pattern
       id="EMFhbasepattern-018"
       patternUnits="userSpaceOnUse"
       width="6"
       height="6"
       x="0"
       y="0" />
  </defs>
  <sodipodi:namedview
     id="base"
     pagecolor="#ffffff"
     bordercolor="#F39E63"
     borderopacity="1.0"
     inkscape:pageopacity="0.0"
     inkscape:pageshadow="2"
     inkscape:zoom="8.7304688"
     inkscape:cx="42.666667"
     inkscape:cy="47.07651"
     inkscape:document-units="pt"
     inkscape:current-layer="layer1"
     showgrid="false"
     units="pt"
     inkscape:window-width="958"
     inkscape:window-height="1041"
     inkscape:window-x="953"
     inkscape:window-y="0"
     inkscape:window-maximized="0"
     inkscape:pagecheckerboard="true"
     inkscape:showpageshadow="false"
     inkscape:object-paths="true"
     inkscape:snap-intersection-paths="true"
     inkscape:snap-smooth-nodes="true"
     inkscape:snap-midpoints="true"
     showguides="true"
     inkscape:snap-bbox="true"
     inkscape:bbox-nodes="true"
     inkscape:snap-nodes="false"
     inkscape:snap-global="true"
     inkscape:snap-others="false">
    <inkscape:grid
       type="xygrid"
       id="grid1378" />
    <sodipodi:guide
       position="0.97013831,21.607643"
       orientation="78.000048,0"
       id="guide1380"
       inkscape:locked="false" />
    <sodipodi:guide
       position="0.97013831,0.97013129"
       orientation="0,78.000005"
       id="guide1382"
       inkscape:locked="false" />
    <sodipodi:guide
       position="21.607639,0.97013129"
       orientation="-78.000048,0"
       id="guide1384"
       inkscape:locked="false" />
    <sodipodi:guide
       position="21.607639,21.607643"
       orientation="0,-78.000005"
       id="guide1386"
       inkscape:locked="false" />
  </sodipodi:namedview>
  <metadata
     id="metadata828">
    <rdf:RDF>
      <cc:Work
         rdf:about="">
        <dc:format>image/svg+xml</dc:format>
        <dc:type
           rdf:resource="http://purl.org/dc/dcmitype/StillImage" />
      </cc:Work>
    </rdf:RDF>
  </metadata>
  <g
     inkscape:label="Icon"
     inkscape:groupmode="layer"
     id="layer1"
     transform="translate(0,-274.42223)">
    <path
       id="rect84332"
       style="color:#F39E63;display:inline;fill:#F39E63;stroke-width:1;stroke-linecap:round;stroke-linejoin:round;-inkscape-stroke:solid"
       d="m 4.1328871,276.2242 c -0.5475277,0 -0.9979031,0.45232 -0.9979069,0.99985 v 0.39006 c -0.3862589,0.1386 -0.6657052,0.51063 -0.6657052,0.942 3.8e-6,0.54755 0.4497099,0.99726 0.9972564,0.99726 h 0.8334315 v 0.57533 l -0.2775933,0.70276 c -0.2570434,0.65276 -0.3887599,1.35016 -0.3887611,2.05173 V 284.212 H 2.9679032 v -0.99726 c 3.8e-6,-0.54756 -0.4523115,-0.9979 -0.9998568,-0.9979 -0.5475478,0 -0.99791186,0.45034 -0.99790809,0.9979 v 5.99005 c -3.77e-6,0.54754 0.45036029,1.0005 0.99790809,1.0005 0.5475453,0 0.9998606,-0.45296 0.9998568,-1.0005 v -0.99727 h 0.6657053 v 2.32933 c 3.8e-6,0.54754 0.4503603,0.99985 0.9979068,0.99985 h 0.3341528 v 0.99791 c 0,0.18778 -0.14638,0.33415 -0.3341528,0.33415 H 1.9680464 c -0.5475478,0 -0.99791186,0.44972 -0.99790809,0.99726 v 0.33155 c -3.77e-6,0.54755 0.45036029,1.00051 0.99790809,1.00051 H 20.609732 c 0.547547,0 0.997909,-0.45296 0.997907,-1.00051 v -0.33155 c 2e-6,-0.54754 -0.45036,-0.99726 -0.997907,-0.99726 h -2.66347 c -0.187773,0 -0.334153,-0.14637 -0.334153,-0.33415 v -1.14743 c 0.973363,-0.26091 1.730758,-1.05581 1.939906,-2.04717 h 0.392012 c 0.547551,0 0.997265,-0.45231 0.997257,-0.99986 v -3.66137 c 0,-0.54755 -0.449708,-0.99726 -0.997257,-0.99726 h -0.38031 c -0.205555,-1.08718 -1.082705,-1.94016 -2.179143,-2.11154 -0.268973,-0.0474 -0.535933,-0.0299 -0.819129,-0.026 -0.42205,0.005 -0.781371,0.28859 -0.903643,0.67286 h -3.042479 v -0.66571 c 0.363703,0 0.665705,-0.302 0.665705,-0.6657 v -0.66571 c 0,-0.3637 -0.302002,-0.66635 -0.665705,-0.66635 H 9.2927492 c -0.3637025,0 -0.6663544,0.30265 -0.6663544,0.66635 v 0.66571 c 0,0.3637 0.3026519,0.6657 0.6663544,0.6657 v 0.66567 H 6.9205256 c -0.057039,-0.47354 -0.1748478,-0.93887 -0.3530055,-1.38343 l -0.2723926,-0.67544 v -0.6046 h 0.832781 c 0.5475503,10e-6 0.9998581,-0.4497 0.9998581,-0.99726 -3.8e-6,-0.43065 -0.2797999,-0.8022 -0.6657053,-0.94135 v -0.39071 c -3.8e-6,-0.54753 -0.4523317,-0.99985 -0.9998581,-0.99985 z m 0,0.66569 h 2.3293161 c 0.187754,0 0.3341516,0.1464 0.3341528,0.33416 v 0.33221 H 3.7987343 v -0.33221 c 1.3e-6,-0.18776 0.1463976,-0.33416 0.3341528,-0.33416 z m 2.9950189,1.33206 c 0.1877753,0 0.3341515,0.14639 0.3341528,0.33416 0,0.18777 -0.1463775,0.33156 -0.3341528,0.33155 H 3.4665289 c -0.187774,0 -0.3315499,-0.14377 -0.3315512,-0.33155 0,-0.18191 0.1348414,-0.32539 0.3139993,-0.33416 z m -2.1622379,1.33401 h 0.6657053 v 0.66571 c -7.775e-4,0.0429 0.00667,0.0854 0.022104,0.12543 l 0.2951465,0.73202 c 0.2295971,0.57291 0.3465041,1.18682 0.3465041,1.80403 v 7.65366 c -1.3e-6,0.18777 -0.1444276,0.33415 -0.3322029,0.33415 H 4.6315153 c -0.1877753,0 -0.3315512,-0.14638 -0.3315524,-0.33415 v -7.65366 c 1.2e-6,-0.61808 0.1148451,-1.23089 0.3413047,-1.80598 l 0.2996967,-0.76193 c 0.015939,-0.039 0.024318,-0.0808 0.024708,-0.12291 z m 4.3270811,0.66376 h 3.3265738 v 0.66571 H 12.287772 9.6243017 9.2927492 Z m 0.6657053,1.33141 h 1.9951645 v 1.33206 H 9.9584545 Z m 6.9879505,0.651 v 7.33641 c 7.17e-4,0.18384 0.150323,0.33227 0.334153,0.33155 0.182815,-7.1e-4 0.330838,-0.14873 0.331551,-0.33155 v -7.2324 c 0.775523,0.26301 1.33206,0.99504 1.33206,1.86385 -3e-6,1.53808 0,3.07634 0,4.61443 0,1.11321 -0.887245,2.01285 -2.000364,2.02701 l -0.37836,0.005 c -0.160466,10e-4 -0.284745,-0.1204 -0.284745,-0.28019 v -8.00991 c 0,-0.18746 0.126533,-0.31516 0.291895,-0.31726 z m -14.9783586,0.68106 c 0.1877703,0 0.3341516,0.14378 0.3341516,0.33155 v 5.99005 c 0,0.18777 -0.1463813,0.33415 -0.3341516,0.33415 -0.1877728,0 -0.3315537,-0.14638 -0.3315525,-0.33415 v -5.99005 c -1.2e-6,-0.18777 0.1437797,-0.33155 0.3315525,-0.33155 z m 4.9927863,0 h 2.3319165 c 0,0.3637 0.3019864,0.6657 0.6657053,0.6657 h 1.9951645 c 0.363716,0 0.665704,-0.302 0.665704,-0.6657 h 2.997623 v 7.3221 H 6.9608327 v -0.66635 c 0.1848479,7.2e-4 0.3348775,-0.14931 0.3341516,-0.33415 -7.171e-4,-0.18384 -0.1503227,-0.33227 -0.3341516,-0.33156 v -0.66571 c 0.1838289,7.2e-4 0.3334345,-0.14771 0.3341516,-0.33155 7.183e-4,-0.18484 -0.1493087,-0.33486 -0.3341516,-0.33414 v -0.66637 c 0.1838289,7.2e-4 0.3334345,-0.14771 0.3341516,-0.33155 7.183e-4,-0.18484 -0.1493087,-0.33486 -0.3341516,-0.33414 v -0.66571 c 0.1838289,7.2e-4 0.3334345,-0.14772 0.3341516,-0.33155 0.00108,-0.1851 -0.1490521,-0.33553 -0.3341516,-0.3348 V 284.212 c 0.1838289,7.2e-4 0.3334345,-0.14772 0.3341516,-0.33155 -7.171e-4,-0.18384 -0.1503227,-0.33227 -0.3341516,-0.33156 z m 7.6556043,0.66375 c -0.184085,3.7e-4 -0.332923,0.15007 -0.332201,0.33416 7.14e-4,0.18307 0.149132,0.3312 0.332201,0.33155 0.18383,7.2e-4 0.333436,-0.14771 0.334153,-0.33155 7.26e-4,-0.18484 -0.149305,-0.33488 -0.334153,-0.33416 z m -8.9870148,6.6e-4 c -0.1840805,3.6e-4 -0.3329162,0.15007 -0.3322016,0.33414 7.146e-4,0.18307 0.1491326,0.3312 0.3322016,0.33156 0.1838302,7.1e-4 0.3334357,-0.14772 0.3341528,-0.33156 7.183e-4,-0.18484 -0.1493099,-0.33487 -0.3341528,-0.33414 z m 3.3291742,0.6644 c -0.1840855,3.6e-4 -0.3329237,0.15007 -0.3322016,0.33416 7.146e-4,0.18306 0.1491326,0.3312 0.3322016,0.33155 h 3.9948786 c 0.182815,-7.2e-4 0.33084,-0.14874 0.331553,-0.33155 7.22e-4,-0.18384 -0.147721,-0.33344 -0.331553,-0.33416 z m 10.6512776,0.13522 h 0.334153 c 0.187773,0 0.331552,0.14378 0.331552,0.33156 v 3.66137 c 3e-6,0.18778 -0.143774,0.33415 -0.331552,0.33415 h -0.334153 z m -16.6419708,0.53049 h 0.6657053 v 2.66412 H 2.9679032 Z m 5.9906932,1.00051 c -0.183069,3.5e-4 -0.331487,0.14848 -0.3322016,0.33155 -7.146e-4,0.18407 0.1481211,0.33378 0.3322016,0.33414 h 3.9948786 c 0.183827,-7.1e-4 0.332268,-0.15032 0.331553,-0.33414 -7.13e-4,-0.18282 -0.148738,-0.33084 -0.331553,-0.33155 z m 5.6578406,0.33155 c -0.18408,3.6e-4 -0.332916,0.15007 -0.332201,0.33414 3.56e-4,0.18332 0.148878,0.33186 0.332201,0.33221 0.184084,7.2e-4 0.333797,-0.14812 0.334153,-0.33221 7.18e-4,-0.18484 -0.14931,-0.33487 -0.334153,-0.33414 z m -8.9870148,6.4e-4 c -0.1840855,3.6e-4 -0.3329237,0.15007 -0.3322016,0.33416 7.146e-4,0.18306 0.1491326,0.3312 0.3322016,0.33155 0.1838302,7.2e-4 0.3334357,-0.14772 0.3341528,-0.33155 7.259e-4,-0.18484 -0.1493049,-0.33489 -0.3341528,-0.33416 z m 3.3291742,0.99921 c -0.1833232,3.5e-4 -0.3318456,0.14889 -0.3322016,0.33221 -7.146e-4,0.18407 0.1481211,0.33378 0.3322016,0.33414 h 3.9948786 c 0.183827,-7.1e-4 0.332268,-0.15032 0.331553,-0.33414 -3.54e-4,-0.18307 -0.148482,-0.33149 -0.331553,-0.33221 z m -3.3291742,1.66361 c -0.1840855,3.7e-4 -0.3329237,0.15007 -0.3322016,0.33416 7.146e-4,0.18307 0.1491326,0.3312 0.3322016,0.33155 0.1838302,7.2e-4 0.3334357,-0.14771 0.3341528,-0.33155 7.259e-4,-0.18484 -0.1493049,-0.33489 -0.3341528,-0.33416 z m 3.3291742,0 c -0.183069,3.6e-4 -0.331487,0.14849 -0.3322016,0.33156 -7.221e-4,0.18408 0.1481161,0.33379 0.3322016,0.33415 h 3.9948786 c 0.183832,-7.1e-4 0.332275,-0.15032 0.331553,-0.33415 -7.13e-4,-0.18282 -0.148738,-0.33084 -0.331553,-0.33156 z m 5.6578406,0 c -0.184085,3.7e-4 -0.332923,0.15007 -0.332201,0.33416 7.14e-4,0.18307 0.149132,0.3312 0.332201,0.33155 0.18383,7.2e-4 0.333436,-0.14771 0.334153,-0.33155 7.26e-4,-0.18484 -0.149305,-0.33489 -0.334153,-0.33416 z m 1.062268,1.99777 c 0.13767,0.35918 0.489307,0.61622 0.89389,0.61174 l 0.37381,-0.005 v 0.72486 H 7.6265367 c -0.1830703,7.2e-4 -0.3311989,0.14914 -0.3315524,0.33221 -7.146e-4,0.18382 0.1477261,0.33342 0.3315524,0.33414 h 9.3796773 c 0.139387,0.38547 0.509725,0.66571 0.940048,0.66571 h 2.66347 c 0.187773,0 0.331554,0.14379 0.331552,0.33155 v 0.33156 c 2e-6,0.18777 -0.143779,0.33415 -0.331552,0.33415 H 1.9680464 c -0.1877728,0 -0.3315537,-0.14638 -0.3315525,-0.33415 v -0.33156 c -1.2e-6,-0.18776 0.1437797,-0.33155 0.3315525,-0.33155 h 2.6634689 c 0.4303226,0 0.8006612,-0.28024 0.9400478,-0.66571 h 0.7235644 c 0.1848428,7.3e-4 0.3348711,-0.1493 0.3341528,-0.33414 -3.561e-4,-0.18409 -0.1500686,-0.33293 -0.3341528,-0.33221 H 5.6313734 v -0.66571 h 0.3315512 c 0.4306232,0 0.8008826,-0.27982 0.9393987,-0.66569 z"
       sodipodi:nodetypes="sscsscccsccssccssccsscssssssssssssccscssccccccsssssscccccccscssssssccsscscssccccccscsscsccccccccccccccccccsccssccscccccsccsccsscccccsccsccscccccccccsssccsssccsscscccsccsccccscccsccsccccscccscscccscccccsssccsscscccscscccccccccssssssssssccccccscscc" />
  </g>
</svg>
